# xmcd CD database file
#
# Track frame offsets:
#	150
#	20833
#	36485
#	57293
#	77321
#	96922
#	118839
#	140386
#
# Disc length: 2156 seconds
#
# Revision: 0
# Processed by: cddbd v1.5PL3 Copyright (c) Steve Scherf et al.
# Submitted via: CDex 1.51
#
DISCID=69086a08
DTITLE=鉄板 - ねえ、私のことどう思ってるの？
DYEAR=1900
DGENRE=Pop
TTITLE0=カメ二匹2（機械バージョン）
TTITLE1=君と僕の可能性
TTITLE2=男の子なら
TTITLE3=スマイル
TTITLE4=サタデナイ
TTITLE5=なんてこったJESUS
TTITLE6=バンバン
TTITLE7=春になったら
EXTD=
EXTT0=
EXTT1=
EXTT2=
EXTT3=
EXTT4=
EXTT5=
EXTT6=
EXTT7=
PLAYORDER=
